<svg version="1.2" xmlns="http://www.w3.org/2000/svg" viewBox="0 0 1140 1200" width="120" height="126">
	<title>vecteezy_person-icon-vector-people-icon-vector-illustration_9866968-ai</title>
	<style>
		.s0 { fill: #ffffff } 
		.s1 { fill: #58595b } 
		.s2 { fill: #f15a29 } 
		.s3 { fill: #1c75bc } 
	</style>
	<g id="_Artboards_">
	</g>
	<g id="Layer 1">
		<path id="&lt;Path&gt;" class="s0" d="m3570 1600h-2000v-2000h2000z"/>
		<path id="&lt;Path&gt;" class="s0" d="m5570 1600h-2000v-2000h2000z"/>
		<g id="&lt;Group&gt;">
			<path id="&lt;Path&gt;" class="s1" d="m570 573.2c158.3 0 286.6-128.3 286.6-286.6 0-158.3-128.3-286.6-286.6-286.6-158.3 0-286.6 128.3-286.6 286.6 0 158.3 128.3 286.6 286.6 286.6z"/>
			<path id="&lt;Path&gt;" class="s1" d="m570 676.5c-299.5 0-545.2 230.3-569.6 523.5h1139.2c-24.4-293.2-270.1-523.5-569.6-523.5z"/>
		</g>
		<g id="&lt;Group&gt;">
			<g id="&lt;Group&gt;">
				<path id="&lt;Compound Path&gt;" fill-rule="evenodd" class="s1" d="m2570 593.2c-81.9 0-158.9-31.9-216.8-89.8-57.9-57.9-89.8-134.9-89.8-216.8 0-81.9 31.9-158.9 89.8-216.8 57.9-57.9 134.9-89.8 216.8-89.8 81.9 0 158.9 31.9 216.8 89.8 57.9 57.9 89.8 134.9 89.8 216.8 0 81.9-31.9 158.9-89.8 216.8-57.9 57.9-134.9 89.8-216.8 89.8zm0-573.2c-147 0-266.6 119.6-266.6 266.6 0 147 119.6 266.6 266.6 266.6 147 0 266.6-119.6 266.6-266.6 0-147-119.6-266.6-266.6-266.6z"/>
			</g>
			<g id="&lt;Group&gt;">
				<path id="&lt;Compound Path&gt;" fill-rule="evenodd" class="s1" d="m3139.6 1220h-1139.2c-5.6 0-10.9-2.3-14.7-6.5-3.8-4.1-5.7-9.6-5.2-15.2 12.2-147.3 79-283.9 188-384.7 109.6-101.3 252.2-157.1 401.5-157.1 149.4 0 292 55.8 401.5 157.1 109 100.8 175.8 237.4 188 384.7 0.5 5.6-1.4 11.1-5.2 15.2-3.8 4.2-9.1 6.5-14.7 6.5zm-1117-40h1094.8c-33.7-272.8-270.1-483.5-547.4-483.5-277.3 0-513.7 210.7-547.4 483.5z"/>
			</g>
		</g>
		<g id="&lt;Group&gt;">
			<path id="&lt;Path&gt;" class="s2" d="m4570 573.2c158.3 0 286.6-128.3 286.6-286.6 0-158.3-128.3-286.6-286.6-286.6-158.3 0-286.6 128.3-286.6 286.6 0 158.3 128.3 286.6 286.6 286.6z"/>
			<path id="&lt;Path&gt;" class="s3" d="m4570 676.5c-299.5 0-545.2 230.3-569.6 523.5h1139.2c-24.4-293.2-270.1-523.5-569.6-523.5z"/>
		</g>
	</g>
</svg>